<svg width="24" height="24" viewBox="0 0 24 24" fill="none" xmlns="http://www.w3.org/2000/svg">
<circle cx="12" cy="12" r="12" fill="#4C4C4C"/>
<path d="M15.3333 7H8.66667C8.22464 7 7.80072 7.17559 7.48816 7.48816C7.17559 7.80072 7 8.22464 7 8.66667V15.3333C7 15.7754 7.17559 16.1993 7.48816 16.5118C7.80072 16.8244 8.22464 17 8.66667 17H15.3333C15.7754 17 16.1993 16.8244 16.5118 16.5118C16.8244 16.1993 17 15.7754 17 15.3333V8.66667C17 8.22464 16.8244 7.80072 16.5118 7.48816C16.1993 7.17559 15.7754 7 15.3333 7ZM8.66667 8.11111H15.3333C15.4807 8.11111 15.622 8.16964 15.7262 8.27383C15.8304 8.37802 15.8889 8.51932 15.8889 8.66667V13.3111L14.1111 11.7944C13.8357 11.5678 13.49 11.4439 13.1333 11.4439C12.7766 11.4439 12.431 11.5678 12.1556 11.7944L8.11111 15.1667V8.66667C8.11111 8.51932 8.16964 8.37802 8.27383 8.27383C8.37802 8.16964 8.51932 8.11111 8.66667 8.11111ZM15.3333 15.8889H8.97778L12.8667 12.6444C12.9414 12.589 13.032 12.559 13.125 12.559C13.218 12.559 13.3086 12.589 13.3833 12.6444L15.8889 14.7778V15.3333C15.8889 15.4807 15.8304 15.622 15.7262 15.7262C15.622 15.8304 15.4807 15.8889 15.3333 15.8889Z" fill="white"/>
<path d="M9.75 10.5C10.1642 10.5 10.5 10.1642 10.5 9.75C10.5 9.33579 10.1642 9 9.75 9C9.33579 9 9 9.33579 9 9.75C9 10.1642 9.33579 10.5 9.75 10.5Z" fill="white"/>
</svg>
