<svg width="18" height="18" viewBox="0 0 18 18" fill="none" xmlns="http://www.w3.org/2000/svg">
    <g clip-path="url(#clip0_348_9102)">
        <path d="M13.5 2.25H4.5C3.90326 2.25 3.33097 2.48705 2.90901 2.90901C2.48705 3.33097 2.25 3.90326 2.25 4.5V13.5C2.25 14.0967 2.48705 14.669 2.90901 15.091C3.33097 15.5129 3.90326 15.75 4.5 15.75H13.5C14.0967 15.75 14.669 15.5129 15.091 15.091C15.5129 14.669 15.75 14.0967 15.75 13.5V4.5C15.75 3.90326 15.5129 3.33097 15.091 2.90901C14.669 2.48705 14.0967 2.25 13.5 2.25ZM4.5 3.75H13.5C13.6989 3.75 13.8897 3.82902 14.0303 3.96967C14.171 4.11032 14.25 4.30109 14.25 4.5V10.77L11.85 8.7225C11.4781 8.41653 11.0116 8.24925 10.53 8.24925C10.0484 8.24925 9.58185 8.41653 9.21 8.7225L3.75 13.275V4.5C3.75 4.30109 3.82902 4.11032 3.96967 3.96967C4.11032 3.82902 4.30109 3.75 4.5 3.75V3.75ZM13.5 14.25H4.92L10.17 9.87C10.2709 9.79511 10.3931 9.75468 10.5187 9.75468C10.6444 9.75468 10.7666 9.79511 10.8675 9.87L14.25 12.75V13.5C14.25 13.6989 14.171 13.8897 14.0303 14.0303C13.8897 14.171 13.6989 14.25 13.5 14.25Z" fill="white"/>
        <path d="M6 7.5C6.62132 7.5 7.125 6.99632 7.125 6.375C7.125 5.75368 6.62132 5.25 6 5.25C5.37868 5.25 4.875 5.75368 4.875 6.375C4.875 6.99632 5.37868 7.5 6 7.5Z" fill="white"/>
    </g>
    <defs>
        <clipPath id="clip0_348_9102">
            <rect width="18" height="18" fill="white"/>
        </clipPath>
    </defs>
</svg>